<svg id="レイヤー_1" data-name="レイヤー 1" xmlns="http://www.w3.org/2000/svg" viewBox="0 0 805.74 234.43"><defs><style>.cls-1{fill:#f0810f;}</style></defs><path class="cls-1" d="M157.91,48.35c-21.32-7.53-52.54-18.87-49.79-46.44A2,2,0,0,1,111.33.37c11.74,8,23.35,16.78,35.3,24.28,6.52,4.17,11.91,10.48,13.4,18.1C160.36,45.12,162.16,48.8,157.91,48.35Z"/><path class="cls-1" d="M157.91,48.35c-21.32-7.53-52.54-18.87-49.79-46.44A2,2,0,0,1,111.33.37c11.74,8,23.35,16.78,35.3,24.28,6.52,4.17,11.91,10.48,13.4,18.1C160.36,45.12,162.16,48.8,157.91,48.35Z"/><path class="cls-1" d="M168,69.76c-16.18-.11-33.8-.38-47.79-9.73h0a28.27,28.27,0,0,1-9.75-14.31c-.5-2.87-4.39-15.66,1.46-13.55,12.19,8.51,25,16,38.23,19.81,1.69.53,8.82,3.11,11,4.83C163.86,58.06,174.33,68.68,168,69.76Z"/><path class="cls-1" d="M184.27,99.31c-14.45-3.77-28.6-5.11-42.54-5.69a60.53,60.53,0,0,0-23.88-18c-1.06-2.05-3.66-8.14.7-7.22a92.83,92.83,0,0,0,21.76,6.25c15.79,1.92,35.56-1.19,43.58,16.46C184.89,93.38,189.2,99.4,184.27,99.31Z"/><path class="cls-1" d="M184.27,99.31c-14.45-3.77-28.6-5.11-42.54-5.69a60.53,60.53,0,0,0-23.88-18c-1.06-2.05-3.66-8.14.7-7.22a92.83,92.83,0,0,0,21.76,6.25c15.79,1.92,35.56-1.19,43.58,16.46C184.89,93.38,189.2,99.4,184.27,99.31Z"/><path class="cls-1" d="M194.56,136.75c-11.93-10.43-26.14-15.31-40.91-18a59.61,59.61,0,0,0-7.39-18.67c19.39,1.63,47,2.52,50.46,27.29C197,129.8,199.47,139.11,194.56,136.75Z"/><path class="cls-1" d="M191.59,171.57c-10.56,24.52-2.51-14.5-37.24-31.76a60,60,0,0,0,.27-14.91C176.74,129.25,203.66,144.8,191.59,171.57Z"/><path class="cls-1" d="M191.59,171.57c-10.56,24.52-2.51-14.5-37.24-31.76a60,60,0,0,0,.27-14.91C176.74,129.25,203.66,144.8,191.59,171.57Z"/><path class="cls-1" d="M177.06,183.56c.24,10-5.7,18.89-13.19,25.06-6.11,4.13-2.81-9.73-4.11-12.67-1.5-13.37-5.83-25.94-11-38a61,61,0,0,0,4.65-12.88C166.41,152.9,176.47,168.68,177.06,183.56Z"/><path class="cls-1" d="M153,202.64c-.07,13.49-11.68,23.14-24.11,26.52-2,.68-3.71-.77-2.94-2.43,7.83-15.65,8.9-32.56,7.36-49.19a60.31,60.31,0,0,0,11.83-13.26A102.29,102.29,0,0,1,153,202.64Z"/><path class="cls-1" d="M153,202.64c-.07,13.49-11.68,23.14-24.11,26.52-2,.68-3.71-.77-2.94-2.43,7.83-15.65,8.9-32.56,7.36-49.19a60.31,60.31,0,0,0,11.83-13.26A102.29,102.29,0,0,1,153,202.64Z"/><path class="cls-1" d="M127.37,198.34c-1.22,17.27-12.18,37.21-32.64,36-2.53-.17-11.16.61-8.33-3.78a80.6,80.6,0,0,0,26.28-41.79,59.77,59.77,0,0,0,15.14-7.22A71.07,71.07,0,0,1,127.37,198.34Z"/><path class="cls-1" d="M106.16,190.45c-6.57,19.15-26.54,47.23-51,34.9-2.23-1.22-10.53-3.89-6.17-6.81,16.25-4.88,29.45-15,40.1-27.25A60.34,60.34,0,0,0,106.16,190.45Z"/><path class="cls-1" d="M106.16,190.45c-6.57,19.15-26.54,47.23-51,34.9-2.23-1.22-10.53-3.89-6.17-6.81,16.25-4.88,29.45-15,40.1-27.25A60.34,60.34,0,0,0,106.16,190.45Z"/><path class="cls-1" d="M59.78,180.39c-19.34,7.52-50.29,10.79-57.89-14.6-.66-2.46-4.32-10.35.77-9.14a80.54,80.54,0,0,0,43.77,10.71A60.67,60.67,0,0,0,59.78,180.39Z"/><path class="cls-1" d="M82.41,190.28c-11.74,11.5-28.57,24.33-46.33,19.63-3.6.47-25-15.79-16.8-17.63,15,1.44,29.41-.59,42.81-6.86,1.56-.53,3.07-2,4.53-.81A59.49,59.49,0,0,0,82.41,190.28Z"/><path class="cls-1" d="M59.78,180.39c-19.34,7.52-50.29,10.79-57.89-14.6-.66-2.46-4.32-10.35.77-9.14a80.54,80.54,0,0,0,43.77,10.71A60.67,60.67,0,0,0,59.78,180.39Z"/><path class="cls-1" d="M94.56,87.46a44.08,44.08,0,1,0,44.07,44.09A44.14,44.14,0,0,0,94.56,87.46Zm15.32,52.93a6.48,6.48,0,0,1-6.48,6.48H85.71a6.48,6.48,0,0,1-6.48-6.48V122.7a6.48,6.48,0,0,1,6.48-6.48H103.4a6.48,6.48,0,0,1,6.48,6.48Z"/><path class="cls-1" d="M394.76,87.7a43.62,43.62,0,1,0,43.62,43.62A43.67,43.67,0,0,0,394.76,87.7Zm15.16,51.79a7,7,0,0,1-7,7H386.59a7,7,0,0,1-7-7V123.16a7,7,0,0,1,7-7h16.33a7,7,0,0,1,7,7Z"/><path class="cls-1" d="M690.4,100.48a43.62,43.62,0,1,0,0,61.68A43.67,43.67,0,0,0,690.4,100.48Zm-14.35,35.79L664.5,147.82a7,7,0,0,1-9.89,0l-11.55-11.55a7,7,0,0,1,0-9.9l11.55-11.54a7,7,0,0,1,9.89,0l11.55,11.54A7,7,0,0,1,676.05,136.27Z"/><path class="cls-1" d="M327.33,45.55c-8.44.22-16.8,0-25.18.24-.17,27.05.46,55.93.05,82.39-.15,10.09-.29,14.75-5.59,22.57-2.46,3.64-7.36,5.41-12.06,5.61-5.2.21-9.68-2.41-12.82-6.6-5.2,6-10.32,12.16-15.31,18.29,7.85,7.39,18.61,12.06,28.85,12.17a41.5,41.5,0,0,0,22.94-6.78c14.89-10.27,18.49-24.49,18.86-40.27C327.79,103.08,327,75.15,327.33,45.55Z"/><path class="cls-1" d="M587.14,98.4c-3.28-4.25-9.65-10.24-22.59-10.24-14.48,0-22.79,8.69-26.84,15.26-2.13-4.25-8.89-15.26-26.46-15.26a30.78,30.78,0,0,0-24.91,12.17V90.87H462.78v83.61h23.56V131.81c0-4.45.2-11.2,3.29-16.23,2.51-4.44,6.56-7.33,12.93-7.33a11.83,11.83,0,0,1,9.66,4.25c1.74,2.12,3.86,6.56,3.86,16.41v45.57h23.56V131.81c0-4.45.19-11.2,3.28-16.23,2.51-4.44,6.57-7.33,12.94-7.33a11.81,11.81,0,0,1,9.65,4.25c1.74,2.12,3.87,6.56,3.87,16.41v45.57h23.55V122C592.93,112.69,592.55,105.54,587.14,98.4Z"/><path class="cls-1" d="M799.17,98.4c-6.56-8.11-17.38-10.24-24.72-10.24-13.51,0-21.43,7.34-25.87,13.52V90.87H725v83.61h23.56V131.81c0-4.83.19-10.82,3.67-16.23,3.47-5.21,8.3-7.33,14.48-7.33,2.32,0,7.34.38,11,4.25,4.24,4.44,4.44,11.77,4.44,16.41v45.57h23.56V122C805.74,113.85,805,105.54,799.17,98.4Z"/></svg>